<svg xmlns="http://www.w3.org/2000/svg" xmlns:xlink="http://www.w3.org/1999/xlink" contentStyleType="text/css" data-diagram-type="DESCRIPTION" height="518px" preserveAspectRatio="none" style="width:939px;height:518px;background:#FFFFFF;" version="1.1" viewBox="0 0 939 518" width="939px" zoomAndPan="magnify"><defs/><g><!--cluster Applicant Tracking System (ATS)--><g class="cluster" data-entity="Applicant Tracking System (ATS)" data-source-line="98" data-uid="ent0004" id="cluster_Applicant Tracking System (ATS)"><rect fill="none" height="505" rx="2.5" ry="2.5" style="stroke:#181818;stroke-width:1;" width="733.09" x="118.54" y="7"/><text fill="#000000" font-family="sans-serif" font-size="14" font-weight="bold" lengthAdjust="spacing" textLength="235.7783" x="367.1958" y="22.5352">Applicant Tracking System (ATS)</text></g><!--cluster Candidate Interaction--><g class="cluster" data-entity="Candidate Interaction" data-source-line="100" data-uid="ent0005" id="cluster_Candidate Interaction"><rect fill="none" height="166" rx="2.5" ry="2.5" style="stroke:#181818;stroke-width:1;" width="633.22" x="169.93" y="191"/><text fill="#000000" font-family="sans-serif" font-size="14" font-weight="bold" lengthAdjust="spacing" textLength="155.3467" x="408.8667" y="206.5352">Candidate Interaction</text></g><!--cluster Candidate Management--><g class="cluster" data-entity="Candidate Management" data-source-line="106" data-uid="ent0009" id="cluster_Candidate Management"><rect fill="none" height="117" rx="2.5" ry="2.5" style="stroke:#181818;stroke-width:1;" width="342.62" x="485.01" y="50"/><text fill="#000000" font-family="sans-serif" font-size="14" font-weight="bold" lengthAdjust="spacing" textLength="169.6748" x="571.4826" y="65.5352">Candidate Management</text></g><!--cluster Interview Management--><g class="cluster" data-entity="Interview Management" data-source-line="110" data-uid="ent0011" id="cluster_Interview Management"><rect fill="none" height="107" rx="2.5" ry="2.5" style="stroke:#181818;stroke-width:1;" width="287.98" x="143.79" y="381"/><text fill="#000000" font-family="sans-serif" font-size="14" font-weight="bold" lengthAdjust="spacing" textLength="164.2813" x="205.6394" y="396.5352">Interview Management</text></g><g class="entity" data-entity="Candidate Resume Submission &amp; Parsing" data-source-line="114" data-uid="ent0013" id="entity_Candidate Resume Submission &amp; Parsing"><ellipse cx="287.7844" cy="129.9969" fill="#F1F1F1" rx="153.2344" ry="33.0469" style="stroke:#181818;stroke-width:0.5;"/><text fill="#000000" font-family="sans-serif" font-size="14" lengthAdjust="spacing" textLength="276.9375" x="149.3156" y="133.2879">Candidate Resume Submission &amp; Parsing</text></g><g class="entity" data-entity="UC1" data-source-line="101" data-uid="ent0006" id="entity_UC1"><ellipse cx="287.7838" cy="323.9968" fill="#F1F1F1" rx="74.6338" ry="17.3268" style="stroke:#181818;stroke-width:0.5;"/><text fill="#000000" font-family="sans-serif" font-size="14" lengthAdjust="spacing" textLength="105.1709" x="235.1984" y="327.2878">Submit Resume</text></g><g class="entity" data-entity="Parsing" data-source-line="102" data-uid="ent0007" id="entity_Parsing"><ellipse cx="287.7808" cy="249.0002" fill="#F1F1F1" rx="101.8508" ry="22.7702" style="stroke:#181818;stroke-width:0.5;"/><text fill="#000000" font-family="sans-serif" font-size="14" lengthAdjust="spacing" textLength="167.6924" x="203.9346" y="252.2912">Resume Parsing (AI/NLP)</text></g><g class="entity" data-entity="Chatbot" data-source-line="103" data-uid="ent0008" id="entity_Chatbot"><ellipse cx="656.3227" cy="311.9965" fill="#F1F1F1" rx="130.8327" ry="28.5665" style="stroke:#181818;stroke-width:0.5;"/><text fill="#000000" font-family="sans-serif" font-size="14" lengthAdjust="spacing" textLength="230.0088" x="541.3183" y="315.2876">Conversational Chatbot Screening</text></g><g class="entity" data-entity="Screening" data-source-line="107" data-uid="ent0010" id="entity_Screening"><ellipse cx="656.3195" cy="118.0019" fill="#F1F1F1" rx="155.3095" ry="33.4619" style="stroke:#181818;stroke-width:0.5;"/><text fill="#000000" font-family="sans-serif" font-size="14" lengthAdjust="spacing" textLength="281.251" x="515.694" y="121.2929">AI-driven Candidate Screening &amp; Ranking</text></g><g class="entity" data-entity="Scheduling" data-source-line="111" data-uid="ent0012" id="entity_Scheduling"><ellipse cx="287.7794" cy="443.9979" fill="#F1F1F1" rx="127.9894" ry="27.9979" style="stroke:#181818;stroke-width:0.5;"/><text fill="#000000" font-family="sans-serif" font-size="14" lengthAdjust="spacing" textLength="223.9932" x="175.7828" y="447.2889">Interview Scheduling Automation</text></g><!--entity Candidate--><g class="entity" data-entity="Candidate" data-source-line="95" data-uid="ent0002" id="entity_Candidate"><ellipse cx="40.272" cy="257.26" fill="#F1F1F1" rx="8" ry="8" style="stroke:#181818;stroke-width:0.5;"/><path d="M40.272,265.26 L40.272,292.26 M27.272,273.26 L53.272,273.26 M40.272,292.26 L27.272,307.26 M40.272,292.26 L53.272,307.26" fill="none" style="stroke:#181818;stroke-width:0.5;"/><text fill="#000000" font-family="sans-serif" font-size="14" lengthAdjust="spacing" textLength="68.5439" x="6" y="322.2952">Candidate</text></g><!--entity Recruiter--><g class="entity" data-entity="Recruiter" data-source-line="96" data-uid="ent0003" id="entity_Recruiter"><ellipse cx="902.1559" cy="239.26" fill="#F1F1F1" rx="8" ry="8" style="stroke:#181818;stroke-width:0.5;"/><path d="M902.1559,247.26 L902.1559,274.26 M889.1559,255.26 L915.1559,255.26 M902.1559,274.26 L889.1559,289.26 M902.1559,274.26 L915.1559,289.26" fill="none" style="stroke:#181818;stroke-width:0.5;"/><text fill="#000000" font-family="sans-serif" font-size="14" lengthAdjust="spacing" textLength="61.0518" x="871.63" y="304.2952">Recruiter</text></g><!--link Candidate to Candidate Resume Submission & Parsing--><g class="link" data-entity-1="Candidate" data-entity-2="Candidate Resume Submission &amp; Parsing" data-source-line="114" data-uid="lnk14" id="link_Candidate_Candidate Resume Submission &amp; Parsing"><path d="M70.59,248.3 C82.02,234.98 95.89,220.73 110.54,210 C139.41,188.86 169.2219,173.7686 200.6719,160.6586" fill="none" id="Candidate-to-Candidate Resume Submission &amp; Parsing" style="stroke:#181818;stroke-width:1;"/><polygon fill="#181818" points="206.21,158.35,196.3638,158.1208,201.5949,160.2738,199.4419,165.5049,206.21,158.35" style="stroke:#181818;stroke-width:1;"/></g><!--link Candidate Resume Submission & Parsing to Screening--><g class="link" data-entity-1="Candidate Resume Submission &amp; Parsing" data-entity-2="Screening" data-source-line="115" data-uid="lnk15" id="link_Candidate Resume Submission &amp; Parsing_Screening"><path d="M439.72,125.06 C460.44,124.38 475.7332,123.8765 496.4832,123.1965" fill="none" id="Candidate Resume Submission &amp; Parsing-to-Screening" style="stroke:#181818;stroke-width:1;"/><polygon fill="#181818" points="502.48,123,493.3538,119.2969,497.4827,123.1638,493.6158,127.2926,502.48,123" style="stroke:#181818;stroke-width:1;"/></g><!--link Screening to Recruiter--><g class="link" data-entity-1="Screening" data-entity-2="Recruiter" data-source-line="116" data-uid="lnk16" id="link_Screening_Recruiter"><path d="M744.5,145.9 C782.52,160.89 825.99,182.11 859.63,210 C866.57,215.76 869.3084,218.1337 874.8084,225.4937" fill="none" id="Screening-to-Recruiter" style="stroke:#181818;stroke-width:1;"/><polygon fill="#181818" points="878.4,230.3,876.2167,220.6962,875.407,226.2948,869.8084,225.485,878.4,230.3" style="stroke:#181818;stroke-width:1;"/></g><!--link Recruiter to Scheduling--><g class="link" data-entity-1="Recruiter" data-entity-2="Scheduling" data-source-line="117" data-uid="lnk17" id="link_Recruiter_Scheduling"><path d="M892.06,307.31 C885.86,325.13 875.75,344.99 859.63,357 C727.01,455.86 534.1903,463.7619 409.6103,456.6519" fill="none" id="Recruiter-to-Scheduling" style="stroke:#181818;stroke-width:1;"/><polygon fill="#181818" points="403.62,456.31,412.3775,460.8163,408.6119,456.5949,412.8333,452.8293,403.62,456.31" style="stroke:#181818;stroke-width:1;"/></g><!--link Scheduling to Candidate--><g class="link" data-entity-1="Scheduling" data-entity-2="Candidate" data-source-line="118" data-uid="lnk18" id="link_Scheduling_Candidate"><path d="M224.41,419.29 C189.34,403.95 145.7,382.34 110.54,357 C97.92,347.9 89.7077,340.7269 78.9677,329.7069" fill="none" id="Scheduling-to-Candidate" style="stroke:#181818;stroke-width:1;"/><polygon fill="#181818" points="74.78,325.41,78.197,334.6471,78.2698,328.9907,83.9261,329.0635,74.78,325.41" style="stroke:#181818;stroke-width:1;"/></g><!--SRC=[ZL91QiCm4Bph5OiFnJc4qWyKZ4-1jeGuVS16tjh2zjf8wvHG-lTAZctLXq9radPdPsO7jVGX83rOKzK2fR6anVIiN6DuG8iT3AWRhAYGMqiGsiXLImgrz1PovDAKAClxHDgEHiWgjK8XoOQXDHfPu6mzc-4AYfiJwY3DpiKkWI-bO162P2M50tigd1m54FWpEjBe2D9Yl7H6lA8REze1EdZFdpQGvDw38reNDDFiyFZsSlHw7ZmNjmDvprUo3eCWjf3NA9TUeD2MY3rwcfohVl9xisMq_Ohi5-c8vUvwvSyE-zAQAt4CBfB30voGcqLchQkjp9J9rT3dtp8HKkYQoh4DxDaeVOVtA2VwfHFuevtz_XdI-9mZdC9spWzxbtDqE_LFtCGPruaBXthyCUjjng_-VYqHEl7F_G00]--></g></svg>