<svg xmlns="http://www.w3.org/2000/svg" xmlns:xlink="http://www.w3.org/1999/xlink" contentStyleType="text/css" data-diagram-type="DESCRIPTION" height="116px" preserveAspectRatio="none" style="width:1383px;height:116px;background:#FFFFFF;" version="1.1" viewBox="0 0 1383 116" width="1383px" zoomAndPan="magnify"><defs/><g><!--cluster ATS System--><g class="cluster" data-entity="ATS System" data-source-line="6" data-uid="ent0004" id="cluster_ATS System"><rect fill="none" height="103" rx="2.5" ry="2.5" style="stroke:#181818;stroke-width:1;" width="981.05" x="121.54" y="7"/><text fill="#000000" font-family="sans-serif" font-size="14" font-weight="bold" lengthAdjust="spacing" textLength="84.1094" x="570.0103" y="22.5352">ATS System</text></g><g class="entity" data-entity="UploadResume" data-source-line="7" data-uid="ent0005" id="entity_UploadResume"><ellipse cx="212.2996" cy="68.0019" fill="#F1F1F1" rx="74.7596" ry="17.3519" style="stroke:#181818;stroke-width:0.5;"/><text fill="#000000" font-family="sans-serif" font-size="14" lengthAdjust="spacing" textLength="105.4785" x="159.5604" y="71.2929">Upload Resume</text></g><g class="entity" data-entity="ParseResume" data-source-line="8" data-uid="ent0006" id="entity_ParseResume"><ellipse cx="466.6614" cy="68.0003" fill="#F1F1F1" rx="118.6014" ry="26.1203" style="stroke:#181818;stroke-width:0.5;"/><text fill="#000000" font-family="sans-serif" font-size="14" lengthAdjust="spacing" textLength="204.0049" x="364.6589" y="71.2913">Extract Resume Data (Parsing)</text></g><g class="entity" data-entity="ValidateData" data-source-line="9" data-uid="ent0007" id="entity_ValidateData"><ellipse cx="735.5307" cy="68.0021" fill="#F1F1F1" rx="89.2607" ry="20.2521" style="stroke:#181818;stroke-width:0.5;"/><text fill="#000000" font-family="sans-serif" font-size="14" lengthAdjust="spacing" textLength="139.5488" x="665.7563" y="71.2932">Validate Parsed Data</text></g><g class="entity" data-entity="CreateProfile" data-source-line="10" data-uid="ent0008" id="entity_CreateProfile"><ellipse cx="986.1892" cy="67.9998" fill="#F1F1F1" rx="100.3992" ry="22.4798" style="stroke:#181818;stroke-width:0.5;"/><text fill="#000000" font-family="sans-serif" font-size="14" lengthAdjust="spacing" textLength="164.4932" x="903.9426" y="71.2909">Create Candidate Profile</text></g><!--entity Candidate--><g class="entity" data-entity="Candidate" data-source-line="3" data-uid="ent0002" id="entity_Candidate"><ellipse cx="40.272" cy="38.26" fill="#F1F1F1" rx="8" ry="8" style="stroke:#181818;stroke-width:0.5;"/><path d="M40.272,46.26 L40.272,73.26 M27.272,54.26 L53.272,54.26 M40.272,73.26 L27.272,88.26 M40.272,73.26 L53.272,88.26" fill="none" style="stroke:#181818;stroke-width:0.5;"/><text fill="#000000" font-family="sans-serif" font-size="14" lengthAdjust="spacing" textLength="68.5439" x="6" y="103.2952">Candidate</text></g><!--entity Recruiter--><g class="entity" data-entity="Recruiter" data-source-line="4" data-uid="ent0003" id="entity_Recruiter"><ellipse cx="1346.1159" cy="38.26" fill="#F1F1F1" rx="8" ry="8" style="stroke:#181818;stroke-width:0.5;"/><path d="M1346.1159,46.26 L1346.1159,73.26 M1333.1159,54.26 L1359.1159,54.26 M1346.1159,73.26 L1333.1159,88.26 M1346.1159,73.26 L1359.1159,88.26" fill="none" style="stroke:#181818;stroke-width:0.5;"/><text fill="#000000" font-family="sans-serif" font-size="14" lengthAdjust="spacing" textLength="61.0518" x="1315.59" y="103.2952">Recruiter</text></g><!--link Candidate to UploadResume--><g class="link" data-entity-1="Candidate" data-entity-2="UploadResume" data-source-line="13" data-uid="lnk9" id="link_Candidate_UploadResume"><path d="M74.86,68 C92.77,68 109.55,68 131.34,68" fill="none" id="Candidate-to-UploadResume" style="stroke:#181818;stroke-width:1;"/><polygon fill="#181818" points="137.34,68,128.34,64,132.34,68,128.34,72,137.34,68" style="stroke:#181818;stroke-width:1;"/></g><!--link UploadResume to ParseResume--><g class="link" data-entity-1="UploadResume" data-entity-2="ParseResume" data-source-line="14" data-uid="lnk10" id="link_UploadResume_ParseResume"><path d="M287.32,68 C306.37,68 321.35,68 342.02,68" fill="none" id="UploadResume-to-ParseResume" style="stroke:#181818;stroke-width:1;"/><polygon fill="#181818" points="348.02,68,339.02,64,343.02,68,339.02,72,348.02,68" style="stroke:#181818;stroke-width:1;"/></g><!--link ParseResume to ValidateData--><g class="link" data-entity-1="ParseResume" data-entity-2="ValidateData" data-source-line="15" data-uid="lnk11" id="link_ParseResume_ValidateData"><path d="M585.49,68 C605.74,68 620.47,68 639.79,68" fill="none" id="ParseResume-to-ValidateData" style="stroke:#181818;stroke-width:1;"/><polygon fill="#181818" points="645.79,68,636.79,64,640.79,68,636.79,72,645.79,68" style="stroke:#181818;stroke-width:1;"/></g><!--link ValidateData to CreateProfile--><g class="link" data-entity-1="ValidateData" data-entity-2="CreateProfile" data-source-line="16" data-uid="lnk12" id="link_ValidateData_CreateProfile"><path d="M825.25,68 C844.77,68 859.58,68 879.5,68" fill="none" id="ValidateData-to-CreateProfile" style="stroke:#181818;stroke-width:1;"/><polygon fill="#181818" points="885.5,68,876.5,64,880.5,68,876.5,72,885.5,68" style="stroke:#181818;stroke-width:1;"/></g><!--link CreateProfile to Recruiter--><g class="link" data-entity-1="CreateProfile" data-entity-2="Recruiter" data-source-line="17" data-uid="lnk13" id="link_CreateProfile_Recruiter"><path d="M1086.89,68 C1164.04,68 1259.83,68 1309.41,68" fill="none" id="CreateProfile-to-Recruiter" style="stroke:#181818;stroke-width:1;"/><polygon fill="#181818" points="1315.41,68,1306.41,64,1310.41,68,1306.41,72,1315.41,68" style="stroke:#181818;stroke-width:1;"/><text fill="#000000" font-family="sans-serif" font-size="13" lengthAdjust="spacing" textLength="165.7246" x="1119.59" y="64.5684">Profile available for review</text></g><!--SRC=[RL79Ri8m4BtxAqOvqGC_q0CIehsZijo7U196CZ4QJrY4-kzrx41Z2P_yDiqRsr6Ze1w4swE2PQ5QsNS6Q_K2A-miMrGQyG_LqhEI63COiMiTGRNSRc1p3qgd2Xu6uka3rHYYj3ixZpRcGd-Y2Z10PZ9HUhzlAd7CQ8OlL8JP6YLmrtwax03eNNIFBjNC3fkoAV4K1gACh8I6m6j3M8jlsEMIMHmPyslClsq-NvGxJ45IfoqdzwGLVQOWgUNO0YNzzVpm-QmBU45sU8Yt9dwGq8NfQlu0]--></g></svg>